<svg width="429" height="494" viewBox="0 0 429 494" fill="none" xmlns="http://www.w3.org/2000/svg">
<path d="M184 487.5C-36.4 417.9 -13.5012 230.5 25.4988 145L95.9997 196.5C62.7997 326.9 157.5 383.5 209 395.5C300.2 410.7 335 347.5 341 314H269C208.6 298.4 203.833 244.167 209 219H425C457 463.4 280.5 512.5 184 487.5Z" fill="url(#paint0_linear_240_1995)"/>
<path d="M213.263 221.466C212.461 220.78 211.705 220.123 211 219.5C211.598 219.832 212.37 220.519 213.263 221.466C227.052 233.268 254.379 253.622 269.5 254L360 256C372.666 256.333 406 258.5 426.5 266V298.5C423.166 291.667 410 278 378 275C367.5 274.016 346.5 273 333.5 273H285.5C279.666 272.5 266.9 270.9 262.5 268.5C254.166 265.526 235.8 256.363 229 243.5C225.247 237.524 217.741 226.219 213.263 221.466Z" fill="#17492B"/>
<path d="M200.5 181C201.7 166.6 205.666 146.333 207.5 138C199.499 157.2 195.5 181.333 194.5 191C184.1 231.4 154.833 251.833 141.5 257C133.1 259.8 128.333 266.167 127 269L129.5 263C128.3 234.6 161.333 193.167 178 176C178 172.8 175 173 173.5 173.5C123.5 199.5 113 258.5 117.5 286.501C148.49 278.713 172.047 254.065 180 241.5C200.5 209.111 199.667 194.333 200.5 181Z" fill="#17492B"/>
<path d="M207.5 138C98.6997 150.8 95.999 246 113 287.5C114.516 287.208 116.017 286.873 117.5 286.501C113 258.5 123.5 199.5 173.5 173.5C175 173 178 172.8 178 176C161.333 193.167 128.3 234.6 129.5 263L127 269C128.333 266.167 133.1 259.8 141.5 257C154.833 251.833 184.1 231.4 194.5 191C195.5 181.333 199.499 157.2 207.5 138Z" fill="url(#paint1_linear_240_1995)"/>
<path d="M67.5006 175.5L53.5006 166L44.5006 221.5C30.9006 311.1 79.834 378.167 106.001 400.5C136.801 436.9 195.167 449.333 220.501 451C274.501 457 327.334 425.5 347.001 409C383.801 377 389.001 324.333 387.001 302C382.601 341.2 356.834 378.333 344.501 392C307.301 427.2 246.334 434 220.501 433C171.701 429 134.834 401.333 122.501 388C60.1006 337.6 55.834 256 61.5006 221.5L67.5006 175.5Z" fill="#17492B"/>
<path d="M108.5 54.5C214.5 -29.5 354.667 32.1666 411.5 73.5C421.9 76.6999 369.5 125.5 342 149.5C260 66.7 156.833 124 115.5 163C102.7 149.4 100.167 168.667 100.5 180C88.5 173.6 58.4999 151.333 44.9999 141C7.3999 103.4 14.3332 31.3333 22.4999 0C54.4999 8.4 93.1666 39.8333 108.5 54.5Z" fill="#85CD39"/>
<path d="M41.0007 45C79.0007 83.8 92.834 141.5 95.0007 165.5L58.0007 136.5C36.8013 124.1 21.8343 82.3333 17.0007 63C15.4007 112.6 43.6674 143 58.0007 152L102.001 180C99.6007 152.8 110.334 157.333 116.001 163C128.401 154.6 133.501 143.5 134.501 139C134.101 117.8 142.001 106.833 146.001 104C226.401 35.6 334.501 75.5 378.501 104L394.001 90C320.001 49.6 254.167 46.5 230.501 50C197.301 48 149.001 80.5 129.001 97C136.201 114.2 123.334 143.5 116.001 156C106.401 87.2 62.0007 53.3333 41.0007 45Z" fill="#17492B"/>
<defs>
<linearGradient id="paint0_linear_240_1995" x1="285" y1="145" x2="126.625" y2="490.473" gradientUnits="userSpaceOnUse">
<stop stop-color="#62BA35"/>
<stop offset="0.125" stop-color="#6BBF36"/>
<stop offset="0.34" stop-color="#85CD39"/>
<stop offset="0.46" stop-color="#92D53A"/>
<stop offset="0.87" stop-color="#388B24"/>
</linearGradient>
<linearGradient id="paint1_linear_240_1995" x1="265.869" y1="138" x2="265.869" y2="298.5" gradientUnits="userSpaceOnUse">
<stop stop-color="#9EDD3B"/>
<stop offset="0.42" stop-color="#62BA35"/>
<stop offset="0.675" stop-color="#388B24"/>
<stop offset="0.91" stop-color="#85CD39"/>
<stop offset="1" stop-color="#4DA32D"/>
</linearGradient>
</defs>
</svg>
