<?xml version="1.0" encoding="utf-8"?>
<svg xmlns="http://www.w3.org/2000/svg">
    <defs>
        <!-- icons go here -->
        <symbol id="list" fill="currentColor" viewBox="0 0 16 16">
            <path fill-rule="evenodd"
                d="M2.5 12a.5.5 0 0 1 .5-.5h10a.5.5 0 0 1 0 1H3a.5.5 0 0 1-.5-.5m0-4a.5.5 0 0 1 .5-.5h10a.5.5 0 0 1 0 1H3a.5.5 0 0 1-.5-.5m0-4a.5.5 0 0 1 .5-.5h10a.5.5 0 0 1 0 1H3a.5.5 0 0 1-.5-.5" />
        </symbol>
        <symbol id="close" fill="currentColor" viewBox="0 0 16 16">
            <path
                d="M2.146 2.854a.5.5 0 1 1 .708-.708L8 7.293l5.146-5.147a.5.5 0 0 1 .708.708L8.707 8l5.147 5.146a.5.5 0 0 1-.708.708L8 8.707l-5.146 5.147a.5.5 0 0 1-.708-.708L7.293 8z" />
        </symbol>
        <symbol id="scissors" fill="currentColor" viewBox="0 0 16 16">
            <path
                d="M3.5 3.5c-.614-.884-.074-1.962.858-2.5L8 7.226 11.642 1c.932.538 1.472 1.616.858 2.5L8.81 8.61l1.556 2.661a2.5 2.5 0 1 1-.794.637L8 9.73l-1.572 2.177a2.5 2.5 0 1 1-.794-.637L7.19 8.61zm2.5 10a1.5 1.5 0 1 0-3 0 1.5 1.5 0 0 0 3 0m7 0a1.5 1.5 0 1 0-3 0 1.5 1.5 0 0 0 3 0" />
        </symbol>
        <symbol id="caret-down" fill="currentColor" viewBox="0 0 16 16">
            <path
                d="M7.247 11.14 2.451 5.658C1.885 5.013 2.345 4 3.204 4h9.592a1 1 0 0 1 .753 1.659l-4.796 5.48a1 1 0 0 1-1.506 0z" />
        </symbol>
    </defs>
</svg>